<svg xmlns="http://www.w3.org/2000/svg" viewBox="0 0 238 238"><path d="M227.7 236.5L1 216.1 16.3 7.7l220.6-6.1-.1 2.1-9.1 232.8zm-222.4-24l218.6 19.6 8.8-226.4L20 11.6 5.3 212.5z"/><path d="M185.2 38.9c-31.3.5-60.9 14.7-82 37.7-2.5 2.8-4.9 5.6-7.2 8.6-1.8 2.4-2 5.4-2.3 8.3l-.9-3.9c-8 11.9-14.3 24.9-16.9 39-.7 4-1.2 8-1.2 12 0 1.9 0 3.7.1 5.6.1 1.8-.8 3.2-1.5 4.8-3.2 7.1-5.7 14.5-7.6 22.1-2.2 8.5-3.6 17.2-4 26 2.4-8.9 5.1-17.8 8.3-26.5 1.6-4.2 3.3-8.4 5.2-12.5.9-2.1 2-4.1 3-6.2.5-1 .9-2.4 1.6-3.2.5-.6-.2-.5.9-.5.7 0 1.5.2 2.2.2 8.8.1 18-2 26.4-4.5 6-1.8 11.6-4.5 17.2-6.8 3.8-1.5 7.6-3.1 11.4-4.6-5.9.4-11.9 1-17.9 1 3.9-.9 7.8-1.7 11.7-2.7 1.9-.5 3.9-.9 5.8-1.4 2.6-.7 4.2-1.5 6.3-3.2 8.8-6.7 15.9-15.6 21.9-24.7 6-9.1 10.8-19 14.1-29.3 3.7-11.5 5.4-23.3 5.4-35.3zm-46.7 87.7c-.1 0-.1 0 0 0zm37.9-53.3c-3.9 11.4-9.6 22.1-16.7 31.8-3.6 5-7.6 9.7-12 13.9-2.2 2.1-4.4 4.1-6.9 5.9-1.3.9-2.2 1.6-3.7 2-8.9 2.3-18.3 4-27.5 5.9-4.5.9-8.9 1.9-13.4 2.8 4.3 1.3 8.6 2.7 13 3.6-8.4 2-16.9 3.2-25.5 3.8 10.8-18.8 24.8-35.6 41.4-49.6 4.6-3.9 9.4-7.6 14.4-10.9-10.5 4-20.2 10.6-28.7 17.8-8.2 7-15.6 14.8-22 23.5-3.8 5.1-7.2 10.4-10.2 16-1-16.2 4.7-32.2 13.2-45.9.7 2.8 1.5 5.5 2.3 8.3.2-1.7.4-3.5.6-5.2.2-2 .5-4 .8-6.1.2-1.4.3-3 1.1-4.2 4-5.8 9.1-11.1 14.3-15.9 12-11.1 26.2-19.7 41.7-24.6 9.5-3 19.4-4.5 29.4-4.5-.1 10.9-2.1 21.5-5.6 31.6-3.7 10.5 3.5-10.1 0 0z"/></svg>